<svg version="1.0" xmlns="http://www.w3.org/2000/svg" width="1499.000000pt" height="213.000000pt" viewBox="0 0 1499.000000 213.000000" preserveAspectRatio="xMidYMid meet">

<g transform="translate(0.000000,213.000000) scale(0.100000,-0.100000)" fill="#23ffbd" stroke="none">
<path d="M2300 1615 l0 -185 551 0 550 0 45 -37 c40 -34 44 -41 44 -82 0 -40 -5 -51 -42 -88 l-42 -43 -337 0 c-185 0 -351 3 -368 6 -29 6 -31 9 -31 50 l0 44 -185 0 -185 0 0 -535 0 -535 699 0 699 0 81 86 81 85 0 267 0 266 -41 42 -42 43 42 49 41 50 0 264 0 263 -88 88 -87 87 -693 0 -692 0 0 -185z m1152 -832 c33 -32 38 -43 38 -82 0 -39 -5 -51 -37 -83 l-37 -38 -373 0 -373 0 0 120 0 120 372 0 372 0 38 -37z" fill="#23ffbd"/>
<path d="M13330 1615 l0 -185 785 0 785 0 0 93 0 92 -93 93 -92 92 -693 0 -692 0 0 -185z" fill="#23ffbd"/>
<path d="M6090 1083 l0 -708 87 -87 88 -88 605 0 605 0 88 88 87 87 0 708 0 707 -180 0 -180 0 0 -570 0 -570 -41 -45 -42 -45 -335 0 -336 0 -43 42 -43 42 0 573 0 573 -180 0 -180 0 0 -707z" fill="#23ffbd"/>
<path d="M7990 1603 l0 -183 780 0 780 0 0 184 0 183 -780 -1 -780 -1 0 -182z" fill="#23ffbd"/>
<path d="M831 1758 c-5 -13 -126 -342 -271 -732 -144 -390 -273 -737 -286 -772 l-24 -64 199 0 199 0 47 130 48 130 388 0 388 0 14 -27 c8 -16 28 -68 46 -118 17 -50 35 -96 40 -103 6 -9 53 -12 202 -10 l195 3 -278 750 c-153 413 -285 769 -294 793 l-16 42 -294 0 -294 0 -9 -22z m352 -385 c59 -151 199 -544 195 -548 -3 -3 -115 -4 -249 -3 l-245 3 108 290 c59 160 107 291 107 293 1 1 16 2 35 2 30 0 36 -4 49 -37z" fill="#23ffbd"/>
<path d="M4267 1692 l-87 -87 0 -93 0 -92 558 0 558 0 42 -43 42 -43 0 -345 0 -345 -43 -42 -43 -42 -330 0 -330 0 -37 38 -37 38 0 322 0 322 -187 -2 -188 -3 -3 -450 -2 -449 92 -93 93 -93 600 0 600 0 93 93 92 92 0 615 0 615 -88 88 -87 87 -610 0 -610 0 -88 -88z" fill="#23ffbd"/>
<path d="M10720 1595 l0 -185 438 0 438 0 37 -38 37 -38 0 -572 0 -572 185 0 185 0 0 610 0 610 248 0 248 0 37 -38 37 -38 0 -572 0 -572 185 0 185 0 0 728 0 728 -68 67 -68 67 -1062 0 -1062 0 0 -185z" fill="#23ffbd"/>
<path d="M8590 735 l0 -545 180 0 180 0 0 545 0 545 -180 0 -180 0 0 -545z" fill="#23ffbd"/>
<path d="M13330 745 l0 -535 697 0 698 0 87 87 88 88 0 97 0 98 -595 0 -595 0 0 120 0 120 460 0 460 0 0 186 0 186 -460 -8 -460 -7 0 52 0 51 -190 0 -190 0 0 -535z" fill="#23ffbd"/>
<path d="M10728 1263 c-1 -5 -2 -248 -2 -540 l-1 -533 188 0 187 0 0 540 0 540 -185 0 c-102 0 -186 -3 -187 -7z" fill="#23ffbd"/>
</g>
</svg>