<svg version="1.0" xmlns="http://www.w3.org/2000/svg" width="1547.000000pt" height="193.000000pt" viewBox="0 0 1547.000000 193.000000" preserveAspectRatio="xMidYMid meet">

<g transform="translate(0.000000,193.000000) scale(0.100000,-0.100000)" fill="#23ffbd" stroke="none">
<path d="M9130 1157 l0 -563 68 -67 68 -67 427 0 427 0 0 255 0 255 -145 0 -144 0 -3 -112 -3 -113 -164 -3 -165 -3 -33 33 -33 32 0 458 0 458 -150 0 -150 0 0 -563z" fill="#23ffbd"/>
<path d="M10390 1575 l0 -145 621 0 622 0 -5 76 -5 76 -69 69 -68 69 -548 0 -548 0 0 -145z" fill="#23ffbd"/>
<path d="M3780 1565 l0 -145 438 0 438 0 32 -33 c42 -44 44 -92 4 -130 l-28 -27 -297 0 -297 0 0 40 0 40 -145 0 -145 0 0 -430 0 -430 145 0 145 0 0 245 0 245 109 0 109 0 182 -245 182 -245 184 0 183 0 -132 178 c-74 97 -155 207 -181 245 l-48 67 114 0 114 0 67 68 67 68 0 250 0 250 -68 67 -68 67 -552 0 -552 0 0 -145z" fill="#23ffbd"/>
<path d="M5280 1565 l0 -145 620 0 620 0 0 145 0 145 -620 0 -620 0 0 -145z" fill="#23ffbd"/>
<path d="M6790 1558 l0 -148 295 0 295 0 0 148 0 148 -295 -1 -295 0 0 -147z" fill="#23ffbd"/>
<path d="M11880 1565 l0 -145 620 0 620 0 0 145 0 145 -620 0 -620 0 0 -145z" fill="#23ffbd"/>
<path d="M2616 1692 c-4 -7 -402 -1078 -452 -1214 l-13 -38 157 0 158 0 38 105 39 105 312 0 313 0 6 -24 c3 -13 20 -60 37 -105 l31 -81 154 0 c85 0 154 4 154 9 0 6 -424 1157 -455 1234 -7 15 -28 17 -240 17 -129 0 -236 -4 -239 -8z m350 -512 c46 -124 83 -228 84 -232 0 -5 -88 -8 -196 -8 l-196 0 5 23 c4 12 41 118 84 235 l78 213 29 -3 c29 -3 32 -8 112 -228z" fill="#23ffbd"/>
<path d="M7650 1555 l0 -145 615 0 615 0 0 83 0 83 -63 62 -63 62 -552 0 -552 0 0 -145z" fill="#23ffbd"/>
<path d="M5750 880 l0 -430 145 0 145 0 0 430 0 430 -145 0 -145 0 0 -430z" fill="#23ffbd"/>
<path d="M10390 885 l0 -425 548 0 548 0 66 68 66 67 5 78 5 77 -474 0 -475 0 3 98 3 97 363 3 362 2 0 140 0 140 -362 2 -363 3 -3 38 -3 37 -145 0 -144 0 0 -425z" fill="#23ffbd"/>
<path d="M11880 1192 l0 -118 68 -67 68 -67 375 0 375 0 32 -33 c44 -46 44 -91 -1 -135 l-33 -32 -442 0 -442 0 0 -145 0 -145 553 0 553 0 67 68 67 68 0 249 0 250 -72 72 -72 73 -372 0 -372 0 -36 40 -36 40 -140 0 -140 0 0 -118z" fill="#23ffbd"/>
<path d="M6930 1020 l0 -280 -70 0 -70 0 0 -150 0 -150 295 0 295 0 0 150 0 150 -75 0 -75 0 0 280 0 280 -150 0 -150 0 0 -280z" fill="#23ffbd"/>
<path d="M7650 870 l0 -430 548 0 548 0 67 68 67 68 0 82 0 82 -470 0 -470 0 0 280 0 280 -145 0 -145 0 0 -430z" fill="#23ffbd"/>
<path d="M210 1060 l0 -150 550 0 550 0 0 150 0 150 -550 0 -550 0 0 -150z" fill="#23ffbd"/>
<path d="M14047 1203 c-4 -3 -7 -71 -7 -150 l0 -143 550 0 550 0 0 150 0 150 -543 0 c-299 0 -547 -3 -550 -7z" fill="#23ffbd"/>
</g>
</svg>