<svg version="1.0" xmlns="http://www.w3.org/2000/svg" width="1589.000000pt" height="161.000000pt" viewBox="0 0 1589.000000 161.000000" preserveAspectRatio="xMidYMid meet">

<g transform="translate(0.000000,161.000000) scale(0.100000,-0.100000)" fill="#23ffbd" stroke="none">
<path d="M283 1223 c-3 -10 -18 -51 -33 -90 l-28 -73 113 0 113 0 26 -67 c49 -131 76 -205 76 -209 0 -2 -54 -4 -119 -4 l-120 0 29 78 c15 42 33 90 39 105 l11 28 -97 -3 -98 -3 -92 -250 c-51 -137 -93 -253 -93 -257 0 -5 42 -8 94 -8 l94 0 23 65 23 65 189 -2 190 -3 21 -60 21 -60 97 -3 98 -3 -28 74 c-15 41 -79 214 -142 385 l-115 312 -143 0 c-127 0 -143 -2 -149 -17z" fill="#23ffbd"/>
<path d="M1010 1150 l0 -90 268 0 c248 0 270 -1 285 -18 22 -24 21 -65 -1 -85 -16 -15 -45 -17 -195 -17 l-177 0 0 25 c0 25 -1 25 -90 25 l-90 0 0 -260 0 -260 90 0 90 0 0 150 0 150 65 0 66 0 111 -150 111 -150 108 0 c60 0 109 2 109 4 0 3 -43 62 -95 132 -133 176 -130 164 -47 164 66 0 69 1 105 38 l37 38 0 155 0 155 -43 42 -43 42 -332 0 -332 0 0 -90z" fill="#23ffbd"/>
<path d="M1920 1150 l0 -90 375 0 375 0 0 90 0 90 -375 0 -375 0 0 -90z" fill="#23ffbd"/>
<path d="M4666 1191 c-40 -41 -46 -52 -46 -89 l0 -42 268 0 c248 0 270 -1 285 -18 14 -16 17 -44 17 -189 0 -152 -2 -172 -18 -186 -16 -14 -44 -17 -179 -17 -142 0 -162 2 -176 18 -14 16 -17 43 -17 170 l0 152 -90 0 -90 0 0 -217 0 -217 42 -43 42 -43 291 0 291 0 42 43 42 43 0 300 0 300 -40 39 -40 40 -290 1 -289 1 -45 -46z" fill="#23ffbd"/>
<path d="M5533 1150 l2 -90 266 0 c265 0 266 0 287 -23 28 -30 28 -48 -1 -75 -23 -22 -30 -22 -198 -20 -172 3 -174 3 -177 26 -3 21 -8 22 -90 22 l-87 0 0 -260 0 -260 87 0 87 0 3 147 3 148 65 2 65 3 110 -150 110 -149 112 -1 113 0 -88 118 c-49 64 -98 132 -111 150 l-22 32 67 0 c67 0 69 1 111 42 l43 42 0 146 0 146 -48 47 -48 47 -332 0 -331 0 2 -90z" fill="#23ffbd"/>
<path d="M7340 1150 l0 -90 375 0 375 0 0 90 0 90 -375 0 -375 0 0 -90z" fill="#23ffbd"/>
<path d="M3224 1213 c3 -10 64 -180 135 -378 l129 -360 104 -3 105 -3 73 206 c41 113 77 202 81 198 4 -5 39 -96 77 -203 l69 -195 105 -3 105 -3 108 303 c59 167 121 338 136 381 l29 78 -97 -3 -96 -3 -88 -245 c-49 -135 -90 -249 -92 -254 -2 -5 -43 100 -92 235 -48 134 -90 250 -93 257 -3 9 -24 12 -74 10 l-70 -3 -89 -245 c-49 -135 -90 -249 -92 -254 -2 -5 -36 82 -76 195 -41 112 -82 228 -93 257 l-19 52 -95 0 c-86 0 -95 -2 -90 -17z" fill="#23ffbd"/>
<path d="M6440 850 l0 -380 90 0 90 0 0 145 0 145 128 0 129 0 60 -142 59 -143 97 -3 c53 -1 97 1 96 5 0 4 -44 109 -97 233 l-98 225 -44 3 -43 3 144 145 144 144 -130 0 -130 0 -145 -145 c-80 -80 -150 -145 -157 -145 -10 0 -13 35 -13 145 l0 145 -90 0 -90 0 0 -380z" fill="#23ffbd"/>
<path d="M2210 730 l0 -260 90 0 90 0 0 260 0 260 -90 0 -90 0 0 -260z" fill="#23ffbd"/>
<path d="M7340 922 c0 -67 1 -69 43 -110 l43 -42 225 0 c223 0 226 0 247 -23 27 -28 28 -58 4 -80 -16 -15 -51 -17 -290 -17 l-272 0 0 -90 0 -90 332 0 332 0 43 42 43 42 0 156 0 156 -38 37 -38 37 -231 0 -232 0 -19 25 c-18 23 -26 25 -106 25 l-86 0 0 -68z" fill="#23ffbd"/>
<path d="M15364 961 c-39 -18 -84 -65 -97 -103 -6 -17 -180 -18 -3472 -18 l-3465 0 0 -35 0 -35 3470 0 c2995 0 3470 -2 3470 -14 0 -24 52 -78 95 -97 105 -48 241 13 261 116 26 141 -125 248 -262 186z" fill="#23ffbd"/>
</g>
</svg>