<svg version="1.0" xmlns="http://www.w3.org/2000/svg" width="1639.000000pt" height="243.000000pt" viewBox="0 0 1639.000000 243.000000" preserveAspectRatio="xMidYMid meet">

<g transform="translate(0.000000,243.000000) scale(0.100000,-0.100000)" fill="#313131" stroke="none">
<path d="M13662 2192 c13 -21 73 -118 133 -215 l110 -176 995 0 995 -1 110 177 c61 97 120 194 133 215 l23 38 -1261 0 -1261 0 23 -38z" fill="#313131"/>
<path d="M4120 1885 l0 -175 460 0 460 0 40 -36 40 -36 0 -554 0 -554 180 0 180 0 0 698 0 698 -68 67 -68 67 -612 0 -612 0 0 -175z" fill="#313131"/>
<path d="M7846 2052 c-8 -13 -126 -335 -126 -344 0 -4 100 -8 223 -8 l222 0 103 -277 c56 -153 102 -281 102 -285 0 -11 -480 -10 -480 0 0 5 34 99 75 211 41 111 75 204 75 207 0 2 -85 4 -189 4 l-189 0 -86 -232 c-47 -128 -132 -359 -189 -513 l-104 -280 181 -3 c99 -1 185 -1 191 2 7 2 31 58 56 125 l44 121 376 0 376 0 44 -121 c24 -67 48 -123 54 -125 6 -3 92 -3 191 -2 l181 3 -282 760 -281 760 -281 3 c-155 1 -284 -1 -287 -6z" fill="#313131"/>
<path d="M2372 1967 l-82 -82 0 -93 0 -92 533 0 533 0 37 -38 37 -38 0 -340 0 -340 -38 -37 -38 -37 -314 0 -314 0 -43 42 -43 42 0 303 0 303 -175 0 -175 0 0 -438 0 -437 83 -83 82 -82 580 0 580 0 88 88 87 87 0 595 0 595 -83 83 -82 82 -585 0 -585 0 -83 -83z" fill="#313131"/>
<path d="M5802 1878 l3 -173 753 -3 752 -2 0 175 0 175 -755 0 -755 0 2 -172z" fill="#313131"/>
<path d="M11090 1875 l0 -175 750 0 750 0 0 175 0 175 -750 0 -750 0 0 -175z" fill="#313131"/>
<path d="M460 1280 l0 -760 668 0 667 0 83 76 82 76 0 214 0 214 -175 0 -175 0 0 -73 c0 -73 0 -73 -43 -115 l-43 -42 -352 0 -352 0 0 410 0 410 353 0 353 0 42 -43 c42 -42 42 -44 42 -115 l0 -72 175 0 175 0 0 208 0 207 -83 83 -82 82 -668 0 -667 0 0 -760z" fill="#313131"/>
<path d="M9280 1865 l0 -175 750 0 750 0 0 93 0 92 -83 83 -82 82 -668 0 -667 0 0 -175z" fill="#313131"/>
<path d="M4120 1050 l0 -520 175 2 176 3 2 518 2 517 -177 0 -178 0 0 -520z" fill="#313131"/>
<path d="M6380 1040 l0 -520 175 0 175 0 0 520 0 520 -175 0 -175 0 0 -520z" fill="#313131"/>
<path d="M11660 1040 l0 -520 175 0 175 0 0 520 0 520 -175 0 -175 0 0 -520z" fill="#313131"/>
<path d="M9280 1035 l0 -515 671 0 670 0 79 83 79 82 1 93 0 92 -570 0 -570 0 0 340 0 340 -180 0 -180 0 0 -515z" fill="#313131"/>
<path d="M14090 1514 c0 -3 66 -111 147 -240 l147 -234 517 0 517 0 146 234 c80 129 146 237 146 240 0 3 -364 6 -810 6 -445 0 -810 -3 -810 -6z" fill="#313131"/>
<path d="M14579 728 c12 -18 87 -140 169 -270 81 -131 149 -237 152 -237 3 -1 71 106 153 237 81 130 157 252 168 270 l21 32 -342 0 -342 0 21 -32z" fill="#313131"/>
</g>
</svg>