<svg version="1.0" xmlns="http://www.w3.org/2000/svg" width="1465.000000pt" height="466.000000pt" viewBox="0 0 1465.000000 466.000000" preserveAspectRatio="xMidYMid meet">

<g transform="translate(0.000000,466.000000) scale(0.100000,-0.100000)" fill="#313131" stroke="none">
<path d="M280 2180 l0 -1530 360 0 360 0 0 590 0 590 784 0 784 0 7 -137 c5 -76 5 -342 1 -590 l-7 -453 359 0 359 0 -1 1530 -1 1530 -359 0 -359 0 5 -557 c3 -307 3 -573 1 -590 l-5 -33 -784 0 -784 0 0 590 0 590 -360 0 -360 0 0 -1530z" fill="#313131"/>
<path d="M4107 3532 l-167 -167 0 -1190 0 -1190 168 -168 167 -167 1170 0 1170 0 169 169 168 168 -3 1189 -3 1189 -165 168 -166 167 -1170 0 -1170 0 -168 -168z m2051 -606 l72 -74 0 -678 0 -679 -72 -72 -72 -73 -641 0 -641 0 -72 73 -72 72 0 680 0 680 72 72 72 73 642 0 641 0 71 -74z" fill="#313131"/>
<path d="M7574 3691 c-2 -2 -4 -690 -4 -1528 l0 -1523 360 0 360 0 2 878 3 877 48 -130 c26 -71 141 -379 254 -682 l207 -553 271 0 271 0 113 308 c62 169 177 478 255 687 l141 380 3 -883 2 -882 360 0 360 0 0 1524 c0 839 -3 1527 -7 1529 -5 2 -232 1 -506 -2 l-499 -6 -233 -630 c-128 -346 -239 -646 -247 -665 l-14 -34 -26 69 c-254 693 -462 1252 -467 1257 -7 8 -999 16 -1007 9z" fill="#313131"/>
<path d="M11182 2163 l3 -1528 1332 0 1333 0 164 165 164 165 5 308 6 307 -360 0 -359 0 0 -43 c0 -40 -5 -47 -73 -115 l-72 -72 -713 0 -712 0 0 230 0 230 890 0 890 0 0 350 0 350 -890 0 -890 0 0 235 0 235 708 0 707 -1 84 -79 c80 -77 83 -82 77 -115 l-7 -35 362 0 362 0 -5 306 -6 306 -163 164 -164 164 -1337 0 -1338 0 2 -1527z" fill="#313131"/>
</g>
</svg>