<svg version="1.0" xmlns="http://www.w3.org/2000/svg" width="1750.000000pt" height="256.000000pt" viewBox="0 0 1750.000000 256.000000" preserveAspectRatio="xMidYMid meet">

<g transform="translate(0.000000,256.000000) scale(0.100000,-0.100000)" fill="#ffffff" stroke="none">
<path d="M1817 2273 c-4 -3 -7 -242 -7 -530 l0 -524 -34 3 c-30 3 -60 33 -286 283 -554 612 -658 722 -703 744 -38 19 -61 21 -196 21 -167 0 -197 -8 -253 -67 -59 -62 -58 -46 -58 -869 l0 -754 215 0 215 0 0 565 0 565 39 0 c37 0 44 -6 192 -167 384 -417 821 -883 855 -911 48 -40 118 -56 209 -49 115 8 177 46 216 132 17 38 19 84 19 803 l0 762 -208 0 c-115 0 -212 -3 -215 -7z" fill="#ffffff"/>
<path d="M2938 2266 c-57 -20 -85 -42 -116 -88 l-27 -42 -3 -685 c-2 -478 0 -697 8 -724 14 -49 65 -106 115 -128 38 -18 90 -19 913 -19 l872 0 0 180 0 180 -710 0 -709 0 -36 31 -35 31 0 99 c0 96 1 99 31 134 l31 35 524 0 524 0 0 180 0 180 -523 0 -523 0 -32 33 c-30 31 -32 37 -32 108 0 74 1 76 38 112 l38 37 707 0 707 0 0 180 0 180 -862 0 c-694 -1 -870 -3 -900 -14z" fill="#ffffff"/>
<path d="M5240 1430 l0 -850 215 0 215 0 0 318 0 318 28 27 28 27 211 0 211 0 253 -345 253 -345 244 0 c233 0 243 1 230 18 -7 10 -125 163 -263 340 -137 178 -251 326 -253 330 -1 4 19 18 44 32 26 13 57 40 70 60 20 31 404 900 404 915 0 3 -102 4 -227 3 l-228 -3 -82 -205 c-45 -113 -104 -258 -130 -322 l-48 -118 -346 0 -345 0 -27 28 -27 28 0 297 0 297 -215 0 -215 0 0 -850z" fill="#ffffff"/>
<path d="M9752 1502 l3 -778 27 -42 c15 -22 49 -54 75 -69 l48 -28 768 -3 767 -3 0 181 0 180 -603 0 -603 0 -32 33 -32 33 0 637 0 637 -210 0 -210 0 2 -778z" fill="#ffffff"/>
<path d="M12040 2094 l0 -184 688 0 687 0 28 -34 c24 -31 27 -43 27 -114 0 -72 -2 -80 -28 -105 l-27 -26 -635 -3 -635 -3 -48 -28 c-26 -15 -60 -47 -75 -69 l-27 -41 -3 -361 c-4 -394 -2 -413 51 -473 67 -77 19 -73 887 -73 511 0 788 4 813 11 49 13 105 63 128 114 17 37 19 84 19 720 l0 680 -24 52 c-33 70 -87 106 -164 110 -32 1 -418 4 -859 6 l-803 4 0 -183z m1404 -865 c24 -28 26 -38 26 -127 0 -95 -1 -97 -32 -129 l-32 -33 -465 0 -465 0 -33 32 c-33 32 -33 32 -33 129 0 90 2 100 26 128 l26 31 478 0 478 0 26 -31z" fill="#ffffff"/>
<path d="M14442 1513 l3 -768 28 -47 c18 -31 44 -57 75 -75 l47 -28 778 -3 c533 -2 791 1 818 8 48 13 110 67 135 118 18 35 19 71 19 577 0 534 0 540 -22 580 -24 46 -54 75 -103 101 -33 18 -72 19 -665 22 l-630 3 -27 26 c-27 26 -28 29 -28 140 l0 113 -215 0 -215 0 2 -767z m1445 95 l33 -32 0 -285 0 -285 -27 -28 -27 -28 -471 0 -471 0 -27 28 -27 28 0 284 0 283 26 34 25 33 467 0 466 0 33 -32z" fill="#ffffff"/>
<path d="M7690 1430 l0 -180 755 0 755 0 0 180 0 180 -755 0 -755 0 0 -180z" fill="#ffffff"/>
<path d="M16900 755 l0 -175 210 0 210 0 0 175 0 175 -210 0 -210 0 0 -175z" fill="#ffffff"/>
</g>
</svg>