<svg version="1.0" xmlns="http://www.w3.org/2000/svg" width="1715.000000pt" height="153.000000pt" viewBox="0 0 1715.000000 153.000000" preserveAspectRatio="xMidYMid meet">

<g transform="translate(0.000000,153.000000) scale(0.100000,-0.100000)" fill="#313131" stroke="none">
<path d="M462 1188 c-7 -7 -12 -43 -12 -90 0 -65 3 -79 19 -87 10 -6 155 -106 322 -222 167 -116 314 -216 326 -222 18 -8 35 -1 105 47 218 150 332 228 428 295 58 40 117 81 132 90 27 15 28 19 28 97 0 49 -5 85 -12 92 -17 17 -1319 17 -1336 0z" fill="#313131"/>
<path d="M13584 1040 c-33 -13 -64 -59 -64 -95 0 -37 35 -75 69 -75 54 0 111 56 111 110 0 11 -11 32 -25 45 -25 26 -54 30 -91 15z" fill="#313131"/>
<path d="M10080 1003 c-186 -24 -313 -95 -356 -199 -22 -53 -18 -145 9 -185 64 -98 290 -140 585 -109 132 14 139 17 144 51 l5 30 -81 -8 c-45 -4 -146 -8 -226 -8 -164 0 -221 14 -265 66 -51 61 -26 166 53 224 77 56 132 70 267 70 138 0 206 -18 255 -67 34 -34 40 -85 16 -142 -31 -74 -63 -55 -49 29 10 56 10 56 -21 80 -102 78 -353 68 -443 -17 -12 -12 -30 -40 -39 -64 -15 -41 -15 -45 0 -70 29 -43 79 -58 191 -59 86 0 105 3 138 22 l37 22 35 -20 c30 -18 48 -21 114 -18 85 4 114 18 155 72 30 40 34 141 7 184 -25 40 -88 77 -166 98 -60 16 -294 28 -365 18z m200 -178 c36 -19 39 -51 8 -90 -76 -97 -273 -54 -201 43 41 57 132 78 193 47z" fill="#313131"/>
<path d="M5675 994 c-11 -2 -45 -9 -75 -15 -69 -14 -145 -51 -188 -92 -49 -47 -74 -103 -79 -177 -4 -56 -2 -70 19 -100 49 -72 134 -107 284 -117 231 -15 416 54 478 179 36 73 37 167 1 220 -31 45 -107 84 -195 98 -63 9 -204 12 -245 4z m198 -85 c15 -7 26 -16 25 -20 -2 -4 -86 -62 -188 -128 -126 -82 -187 -116 -192 -108 -15 23 -8 101 13 143 39 82 147 138 254 130 33 -2 72 -9 88 -17z m90 -137 c-2 -120 -113 -212 -256 -212 -70 0 -148 23 -131 39 5 5 90 61 189 125 115 74 183 112 189 106 5 -5 9 -32 9 -58z" fill="#313131"/>
<path d="M7360 990 c-157 -22 -240 -89 -240 -194 0 -44 36 -88 89 -109 91 -37 369 -47 469 -18 31 9 33 9 27 -12 -10 -34 -50 -65 -107 -82 -66 -19 -222 -19 -352 0 -107 16 -116 14 -116 -32 0 -19 9 -23 73 -34 96 -18 375 -18 447 0 71 18 138 52 172 88 46 49 82 139 86 220 4 72 4 73 -30 107 -52 52 -116 67 -298 71 -85 2 -184 0 -220 -5z m337 -86 c36 -27 41 -76 14 -121 -27 -43 -96 -63 -215 -63 -105 0 -162 13 -176 40 -18 33 -12 87 13 115 37 43 88 55 219 53 100 -3 120 -6 145 -24z" fill="#313131"/>
<path d="M9114 985 c-38 -7 -95 -20 -126 -29 -49 -14 -56 -19 -62 -48 -3 -17 -5 -33 -3 -34 2 -2 23 3 48 10 76 23 225 39 309 33 91 -6 133 -26 128 -59 -5 -34 -49 -59 -164 -90 -198 -53 -358 -148 -405 -240 l-20 -39 353 6 c194 4 359 8 366 10 6 3 12 18 12 35 l0 30 -230 0 c-146 0 -230 4 -230 10 0 14 77 69 129 91 24 11 97 33 163 49 149 38 193 56 218 88 20 24 27 83 14 117 -24 61 -305 96 -500 60z" fill="#313131"/>
<path d="M2495 981 c-45 -5 -50 -9 -53 -33 -3 -26 -1 -28 32 -28 20 0 36 -3 36 -7 0 -5 -18 -100 -39 -213 -22 -113 -38 -206 -37 -208 2 -1 42 1 89 4 l87 7 6 36 c33 201 76 246 234 245 89 0 136 -20 147 -62 3 -15 -1 -72 -10 -126 -10 -55 -16 -101 -14 -103 2 -2 42 0 89 3 l85 7 16 87 c9 48 17 100 17 117 0 44 -38 93 -95 122 -46 24 -60 26 -180 26 -114 0 -136 -3 -179 -23 -27 -12 -51 -20 -53 -18 -3 2 2 39 11 81 9 43 16 81 16 86 0 10 -123 10 -205 0z" fill="#313131"/>
<path d="M4238 983 c-32 -2 -58 -5 -58 -7 0 -2 -16 -84 -35 -182 -19 -99 -35 -194 -35 -212 0 -65 66 -100 172 -90 50 5 68 18 68 51 0 11 -8 17 -24 17 -46 0 -47 15 -10 205 18 99 36 190 39 203 6 24 15 23 -117 15z" fill="#313131"/>
<path d="M13908 983 c-43 -3 -58 -8 -62 -21 -3 -9 -21 -100 -41 -201 -39 -207 -38 -222 25 -254 26 -13 52 -17 102 -15 37 2 69 6 72 8 2 3 7 17 11 33 7 25 5 27 -23 27 -20 0 -33 6 -36 18 -3 9 11 106 33 215 l38 197 -31 -2 c-17 -1 -57 -3 -88 -5z" fill="#313131"/>
<path d="M4642 970 c-124 -26 -189 -120 -132 -193 l21 -26 -31 -16 c-41 -21 -70 -71 -70 -118 0 -30 7 -45 30 -67 48 -44 110 -52 374 -48 217 3 234 5 284 27 71 32 102 70 102 127 0 35 -6 51 -26 71 l-26 26 25 21 c33 28 47 57 47 98 -1 40 -14 59 -60 84 -31 17 -60 19 -265 21 -126 1 -249 -2 -273 -7z m400 -67 c29 -26 23 -77 -13 -107 -30 -25 -34 -26 -173 -26 -162 0 -186 8 -186 63 1 35 14 57 45 75 12 7 75 12 164 12 121 0 147 -3 163 -17z m-16 -208 c31 -31 26 -57 -17 -97 l-29 -28 -161 0 c-90 0 -169 4 -179 10 -33 17 -43 48 -29 81 21 51 47 58 227 59 161 0 163 0 188 -25z" fill="#313131"/>
<path d="M6432 970 c-124 -26 -189 -120 -132 -193 l21 -26 -31 -16 c-41 -21 -70 -71 -70 -118 0 -30 7 -45 30 -67 48 -44 110 -52 374 -48 217 3 234 5 284 27 71 32 102 70 102 127 0 35 -6 51 -26 71 l-26 26 25 21 c33 28 47 57 47 98 -1 40 -14 59 -60 84 -31 17 -60 19 -265 21 -126 1 -249 -2 -273 -7z m400 -67 c29 -26 23 -77 -13 -107 -30 -25 -34 -26 -173 -26 -162 0 -186 8 -186 63 1 35 14 57 45 75 12 7 75 12 164 12 121 0 147 -3 163 -17z m-16 -208 c31 -31 26 -57 -17 -97 l-29 -28 -161 0 c-90 0 -169 4 -179 10 -33 17 -43 48 -29 81 21 51 47 58 227 59 161 0 163 0 188 -25z" fill="#313131"/>
<path d="M8085 966 c-3 -9 -7 -23 -10 -31 -4 -13 25 -15 223 -15 190 0 231 -3 250 -16 40 -28 25 -92 -28 -119 -23 -12 -71 -15 -233 -15 -212 0 -217 -1 -217 -41 0 -5 95 -9 226 -9 127 0 233 -4 244 -10 39 -21 28 -104 -17 -126 -10 -5 -130 -11 -268 -14 l-250 -5 -6 -38 -6 -37 261 6 c289 6 349 13 409 46 56 32 80 67 80 119 0 36 -5 47 -31 69 l-31 26 30 30 c58 58 48 132 -24 171 -28 16 -67 18 -315 21 -250 3 -283 2 -287 -12z" fill="#313131"/>
<path d="M450 577 c0 -215 3 -296 12 -305 19 -19 1321 -17 1337 2 8 9 11 97 9 300 l-3 287 -55 -38 c-30 -21 -113 -79 -185 -128 -71 -49 -152 -104 -180 -124 -154 -108 -238 -161 -254 -161 -9 0 -75 40 -146 89 -72 50 -179 124 -240 166 -60 42 -152 105 -202 140 l-93 65 0 -293z" fill="#313131"/>
<path d="M3595 854 c-11 -2 -45 -9 -75 -15 -176 -35 -294 -156 -247 -254 46 -96 351 -129 499 -54 l38 19 6 -25 c6 -24 10 -25 80 -25 41 0 74 2 74 3 0 2 14 71 30 152 17 82 28 151 25 153 -25 25 -364 62 -430 46z m211 -79 c35 -14 36 -16 29 -57 -11 -66 -21 -84 -59 -113 -93 -71 -267 -73 -319 -3 -26 35 -17 72 29 115 66 62 237 93 320 58z" fill="#313131"/>
<path d="M11045 854 c-11 -2 -45 -9 -75 -15 -227 -45 -342 -233 -188 -307 97 -47 302 -54 407 -13 30 11 57 19 59 17 8 -8 -29 -65 -54 -85 -61 -48 -205 -64 -355 -40 -38 7 -72 10 -75 7 -3 -3 -6 -18 -7 -34 -2 -28 -1 -29 73 -42 138 -24 341 -6 451 41 40 16 114 79 130 109 12 23 71 310 64 316 -25 25 -364 62 -430 46z m211 -69 c36 -15 36 -15 29 -62 -9 -61 -17 -76 -60 -108 -93 -71 -266 -73 -318 -3 -26 35 -17 72 29 115 66 62 237 93 320 58z" fill="#313131"/>
<path d="M11640 853 c-64 -4 -80 -13 -80 -45 0 -14 8 -18 35 -18 19 0 35 -4 35 -8 0 -5 -12 -71 -26 -146 -14 -76 -24 -140 -21 -142 2 -2 42 -1 89 2 l86 7 11 71 c26 158 60 210 134 204 61 -5 64 -18 39 -158 -13 -68 -21 -124 -19 -126 2 -3 42 -1 89 2 l85 7 16 87 c9 48 17 97 17 109 0 37 52 81 95 81 49 0 75 -16 75 -45 0 -13 -9 -72 -21 -131 -11 -58 -18 -108 -16 -110 2 -3 42 -1 89 2 l85 7 16 87 c30 153 21 204 -42 243 -29 18 -51 22 -118 22 -75 0 -85 -2 -126 -32 -44 -31 -46 -31 -62 -13 -48 53 -178 64 -251 21 l-34 -20 0 24 c0 27 -1 27 -180 18z" fill="#313131"/>
<path d="M12843 846 c-121 -23 -237 -86 -268 -146 -19 -38 -19 -100 1 -128 56 -81 326 -108 474 -49 l60 25 0 -24 c0 -23 2 -24 78 -24 l78 0 29 150 c16 82 26 152 22 156 -3 4 -41 15 -84 25 -104 26 -297 33 -390 15z m249 -66 c21 -6 39 -14 42 -19 3 -4 -1 -34 -9 -67 -16 -68 -41 -93 -123 -124 -84 -32 -197 -24 -244 18 -42 36 -7 121 66 159 78 41 189 54 268 33z" fill="#313131"/>
<path d="M14605 846 c-93 -18 -175 -57 -219 -106 -30 -34 -36 -47 -36 -86 0 -59 11 -78 63 -108 73 -41 137 -51 327 -49 216 2 280 14 291 58 5 16 7 30 5 32 -1 2 -29 -2 -62 -9 -32 -6 -120 -12 -194 -12 -119 -1 -141 2 -183 21 -57 27 -73 58 -53 106 31 76 120 113 254 105 101 -6 150 -29 170 -80 l15 -38 89 0 c48 0 88 2 88 5 0 3 -6 21 -14 39 -37 88 -132 125 -336 132 -88 2 -159 -1 -205 -10z" fill="#313131"/>
<path d="M15512 849 c-170 -26 -272 -104 -272 -208 0 -49 34 -92 89 -114 64 -26 206 -40 336 -34 238 11 340 56 376 164 26 81 -28 149 -144 180 -65 18 -301 25 -385 12z m262 -60 c78 -22 103 -75 69 -146 -24 -51 -84 -76 -198 -81 -151 -7 -215 22 -215 98 0 56 47 107 115 125 61 17 177 19 229 4z" fill="#313131"/>
<path d="M16210 853 c-64 -4 -80 -13 -80 -45 0 -14 8 -18 35 -18 19 0 35 -4 35 -8 0 -5 -12 -71 -26 -146 -14 -76 -24 -140 -21 -142 2 -2 42 -1 89 2 l86 7 11 71 c26 158 60 210 134 204 61 -5 64 -18 39 -158 -13 -68 -21 -124 -19 -126 2 -3 42 -1 89 2 l85 7 16 87 c9 48 17 97 17 109 0 37 52 81 95 81 49 0 75 -16 75 -45 0 -13 -9 -72 -21 -131 -11 -58 -18 -108 -16 -110 2 -3 42 -1 89 2 l85 7 16 87 c30 153 21 204 -42 243 -29 18 -51 22 -118 22 -75 0 -85 -2 -126 -32 -44 -31 -46 -31 -62 -13 -48 53 -178 64 -251 21 l-34 -20 0 24 c0 27 -1 27 -180 18z" fill="#313131"/>
<path d="M13416 808 c-17 -55 -16 -58 26 -58 37 0 40 -2 35 -22 -3 -13 -13 -63 -22 -113 -9 -49 -19 -98 -21 -108 -5 -17 0 -18 83 -11 48 4 89 8 91 9 2 2 62 303 62 313 0 1 -56 2 -125 2 -92 0 -127 -3 -129 -12z" fill="#313131"/>
<path d="M14120 583 c-6 -32 -12 -66 -15 -76 -3 -17 2 -18 63 -11 37 3 70 8 73 10 4 2 9 23 13 46 4 24 9 53 13 66 5 21 3 22 -65 22 l-71 0 -11 -57z" fill="#313131"/>
</g>
</svg>