<svg version="1.0" xmlns="http://www.w3.org/2000/svg" width="1783.000000pt" height="454.000000pt" viewBox="0 0 1783.000000 454.000000" preserveAspectRatio="xMidYMid meet">

<g transform="translate(0.000000,454.000000) scale(0.100000,-0.100000)" fill="#313131" stroke="none">
<path d="M10750 3855 l0 -285 861 0 861 0 64 -62 64 -61 0 -66 0 -67 -63 -62 -63 -62 -572 0 -572 0 0 75 0 75 -290 0 -290 0 0 -835 0 -835 291 0 291 0 -7 369 c-4 203 -4 416 0 474 l7 104 786 7 787 7 135 134 135 135 -1 485 0 486 -135 135 -134 134 -1077 0 -1078 0 0 -285z" fill="#313131"/>
<path d="M4850 3840 l0 -280 463 -2 462 -3 3 -952 2 -953 280 0 280 0 2 953 3 952 463 3 462 2 0 280 0 280 -1210 0 -1210 0 0 -280z" fill="#313131"/>
<path d="M7932 3977 l-132 -132 0 -148 0 -147 863 0 863 0 62 -63 62 -63 0 -545 0 -545 -63 -62 -63 -62 -514 0 -515 0 -64 71 -64 71 6 489 7 489 -290 0 -290 0 0 -708 0 -707 133 -133 132 -132 945 0 945 0 139 139 138 138 -5 958 -5 957 -133 134 -134 134 -945 0 -945 0 -133 -133z" fill="#313131"/>
<path d="M13680 3820 l0 -290 575 0 575 0 0 290 0 290 -575 0 -575 0 0 -290z" fill="#313131"/>
<path d="M15336 4098 c5 -7 196 -282 426 -611 257 -367 416 -603 411 -610 -4 -7 -194 -280 -422 -607 -228 -327 -416 -603 -419 -613 -4 -16 15 -17 339 -15 l343 3 251 357 c137 196 255 362 260 367 7 7 93 -108 269 -359 l259 -370 350 0 349 0 -18 27 c-9 16 -204 295 -432 621 -281 403 -412 598 -408 609 4 9 193 283 421 609 228 326 415 595 415 598 0 3 -156 6 -347 6 l-348 0 -251 -360 -251 -359 -252 359 -252 360 -350 0 c-278 0 -349 -3 -343 -12z" fill="#313131"/>
<path d="M780 3649 l0 -234 541 -224 c297 -124 542 -227 544 -230 2 -3 -241 -108 -538 -232 l-542 -225 -3 -232 c-1 -128 1 -232 5 -232 5 0 367 149 806 332 l797 332 0 256 0 255 -787 327 c-434 180 -796 330 -805 334 -17 6 -18 -9 -18 -227z" fill="#313131"/>
<path d="M2776 3649 c3 -129 7 -234 8 -235 0 0 242 -101 536 -223 294 -122 538 -225 542 -229 4 -4 -237 -108 -535 -232 l-542 -225 -3 -233 c-1 -127 1 -232 5 -232 4 0 366 150 805 332 l798 333 0 255 0 255 -792 329 c-435 181 -800 331 -810 334 -19 5 -19 -2 -12 -229z" fill="#313131"/>
<path d="M13960 2760 l0 -550 -140 0 -140 0 0 -285 0 -285 575 0 575 0 0 285 0 285 -143 0 -144 0 -7 251 c-3 139 -3 386 0 550 l7 299 -291 0 -292 0 0 -550z" fill="#313131"/>
<path d="M271 823 l-121 -127 0 -218 0 -218 4089 0 4088 0 314 328 c173 180 320 335 328 345 13 16 -199 17 -4282 17 l-4295 0 -121 -127z" fill="#313131"/>
<path d="M9509 622 c-173 -180 -320 -335 -328 -345 -13 -16 9 -17 411 -17 l425 0 314 328 c173 180 320 335 328 345 13 16 -9 17 -411 17 l-425 0 -314 -328z" fill="#313131"/>
<path d="M11189 622 c-173 -180 -320 -335 -328 -345 -13 -16 9 -17 411 -17 l425 0 314 328 c173 180 320 335 328 345 13 16 -9 17 -411 17 l-425 0 -314 -328z" fill="#313131"/>
<path d="M12869 622 c-173 -180 -320 -335 -328 -345 -13 -16 9 -17 411 -17 l425 0 314 328 c173 180 320 335 328 345 13 16 -9 17 -411 17 l-425 0 -314 -328z" fill="#313131"/>
</g>
</svg>