<svg version="1.0" xmlns="http://www.w3.org/2000/svg" width="512.000000pt" height="512.000000pt" viewBox="0 0 512.000000 512.000000" preserveAspectRatio="xMidYMid meet">

<g transform="translate(0.000000,512.000000) scale(0.100000,-0.100000)" fill="#313131" stroke="none">
<path d="M2335 4643 c-464 -56 -862 -225 -1206 -512 -430 -358 -717 -895 -778 -1453 -23 -210 -9 -504 34 -708 88 -421 295 -800 605 -1110 337 -337 736 -541 1225 -627 77 -13 157 -17 345 -18 212 0 262 3 373 23 471 85 866 290 1197 622 310 311 517 689 605 1110 43 204 57 498 34 708 -81 740 -537 1396 -1204 1734 -331 167 -641 240 -1018 237 -100 -1 -195 -4 -212 -6z m918 -1228 c74 -19 160 -63 226 -115 l54 -43 56 13 c65 14 188 61 249 95 l43 24 -7 -22 c-24 -77 -95 -176 -173 -239 -28 -23 -50 -43 -48 -44 6 -6 147 27 217 51 41 14 75 24 77 22 10 -11 -122 -161 -197 -222 l-67 -55 -6 -142 c-10 -237 -60 -427 -172 -653 -84 -168 -174 -294 -306 -426 -194 -194 -420 -323 -684 -392 -402 -104 -795 -61 -1158 125 l-122 63 160 6 c172 7 245 22 390 78 81 31 231 117 255 146 11 13 8 15 -22 15 -51 0 -141 26 -211 61 -104 53 -232 197 -261 296 -7 22 -6 22 87 22 52 0 106 3 121 7 27 6 25 7 -23 24 -98 35 -147 66 -222 140 -106 105 -168 238 -169 363 l0 38 28 -14 c38 -20 119 -44 171 -52 l44 -7 -69 69 c-117 116 -168 240 -168 403 0 96 15 163 49 231 10 19 19 35 20 37 2 2 52 -45 112 -105 60 -59 151 -138 203 -175 217 -154 503 -262 757 -286 l82 -8 -6 82 c-20 279 157 524 425 589 77 18 195 18 265 0z" fill="#313131"/>
</g>
</svg>